<svg xmlns="http://www.w3.org/2000/svg" width="800" height="500" viewBox="0 0 800 500" fill="none">
  <rect width="800" height="500" rx="16" fill="#0a0f0d"/>
  <rect x="24" y="24" width="752" height="452" rx="12" fill="#111816" stroke="#1f2937"/>
  <rect x="48" y="48" width="180" height="12" rx="6" fill="#34d399" opacity="0.8"/>
  <rect x="48" y="76" width="320" height="8" rx="4" fill="#6b7280"/>
  <rect x="48" y="120" width="704" height="120" rx="12" fill="#0f1714" stroke="#34d399" stroke-opacity="0.2"/>
  <rect x="72" y="144" width="100" height="20" rx="10" fill="#34d399" opacity="0.15"/>
  <text x="88" y="159" fill="#34d399" font-family="system-ui,sans-serif" font-size="11">ATS 82/100</text>
  <rect x="72" y="176" width="640" height="8" rx="4" fill="#374151"/>
  <rect x="72" y="196" width="480" height="8" rx="4" fill="#374151"/>
  <rect x="48" y="264" width="340" height="180" rx="12" fill="#0f1714" stroke="#374151"/>
  <text x="72" y="296" fill="#f3f4f6" font-family="system-ui,sans-serif" font-size="13" font-weight="600">Job Analysis</text>
  <text x="72" y="322" fill="#9ca3af" font-family="system-ui,sans-serif" font-size="11">Senior Backend · Node.js, PostgreSQL</text>
  <rect x="72" y="340" width="80" height="18" rx="9" fill="#34d399" opacity="0.15"/>
  <text x="82" y="353" fill="#34d399" font-family="system-ui,sans-serif" font-size="10">Required</text>
  <rect x="408" y="264" width="344" height="180" rx="12" fill="#0f1714" stroke="#374151"/>
  <text x="432" y="296" fill="#f3f4f6" font-family="system-ui,sans-serif" font-size="13" font-weight="600">Cover Letter</text>
  <text x="432" y="322" fill="#9ca3af" font-family="system-ui,sans-serif" font-size="11">Dear hiring team, I am excited to apply...</text>
</svg>
