<svg xmlns="http://www.w3.org/2000/svg" width="800" height="500" viewBox="0 0 800 500" fill="none">
  <rect width="800" height="500" rx="16" fill="#0a0f0d"/>
  <rect x="24" y="24" width="752" height="452" rx="12" fill="#111816" stroke="#1f2937"/>
  <rect x="48" y="48" width="160" height="12" rx="6" fill="#34d399" opacity="0.8"/>
  <rect x="48" y="76" width="300" height="8" rx="4" fill="#6b7280"/>
  <rect x="48" y="120" width="220" height="100" rx="12" fill="#0f1714" stroke="#34d399" stroke-opacity="0.3"/>
  <text x="72" y="152" fill="#34d399" font-family="system-ui,sans-serif" font-size="28" font-weight="700">34%</text>
  <text x="72" y="178" fill="#9ca3af" font-family="system-ui,sans-serif" font-size="11">Response rate</text>
  <rect x="288" y="120" width="220" height="100" rx="12" fill="#0f1714" stroke="#374151"/>
  <text x="312" y="152" fill="#f3f4f6" font-family="system-ui,sans-serif" font-size="28" font-weight="700">12</text>
  <text x="312" y="178" fill="#9ca3af" font-family="system-ui,sans-serif" font-size="11">Interviews</text>
  <rect x="528" y="120" width="224" height="100" rx="12" fill="#0f1714" stroke="#374151"/>
  <text x="552" y="152" fill="#f3f4f6" font-family="system-ui,sans-serif" font-size="28" font-weight="700">3</text>
  <text x="552" y="178" fill="#9ca3af" font-family="system-ui,sans-serif" font-size="11">Offers</text>
  <rect x="48" y="248" width="704" height="180" rx="12" fill="#0f1714" stroke="#374151"/>
  <rect x="80" y="360" width="40" height="48" rx="4" fill="#34d399" opacity="0.5"/>
  <rect x="140" y="320" width="40" height="88" rx="4" fill="#34d399" opacity="0.7"/>
  <rect x="200" y="300" width="40" height="108" rx="4" fill="#34d399" opacity="0.8"/>
  <rect x="260" y="280" width="40" height="128" rx="4" fill="#34d399"/>
  <rect x="320" y="340" width="40" height="68" rx="4" fill="#34d399" opacity="0.6"/>
  <text x="72" y="276" fill="#f3f4f6" font-family="system-ui,sans-serif" font-size="13" font-weight="600">Pipeline funnel</text>
</svg>
